<svg xmlns="http://www.w3.org/2000/svg" viewBox="0 0 100 100">
  <defs>
    <linearGradient id="g" x1="0%" y1="0%" x2="100%" y2="100%">
      <stop offset="0%" stop-color="#22c55e"/>
      <stop offset="100%" stop-color="#d97706"/>
    </linearGradient>
  </defs>
  <rect x="8" y="12" width="72" height="68" rx="10" fill="url(#g)"/>
  <rect x="8" y="12" width="72" height="22" rx="10" fill="rgba(255,255,255,0.15)"/>
  <rect x="16" y="22" width="56" height="48" rx="7" fill="rgba(0,0,0,0.18)"/>
  <circle cx="44" cy="46" r="15" fill="rgba(255,255,255,0.12)" stroke="rgba(255,255,255,0.55)" stroke-width="2.5"/>
  <circle cx="44" cy="46" r="7" fill="rgba(255,255,255,0.20)" stroke="rgba(255,255,255,0.70)" stroke-width="2"/>
  <line x1="44" y1="31" x2="44" y2="36" stroke="rgba(255,255,255,0.70)" stroke-width="2" stroke-linecap="round"/>
  <line x1="44" y1="56" x2="44" y2="61" stroke="rgba(255,255,255,0.70)" stroke-width="2" stroke-linecap="round"/>
  <line x1="29" y1="46" x2="34" y2="46" stroke="rgba(255,255,255,0.70)" stroke-width="2" stroke-linecap="round"/>
  <line x1="54" y1="46" x2="59" y2="46" stroke="rgba(255,255,255,0.70)" stroke-width="2" stroke-linecap="round"/>
  <circle cx="44" cy="46" r="2.5" fill="rgba(255,255,255,0.85)"/>
  <rect x="59" y="42" width="10" height="8" rx="4" fill="rgba(255,255,255,0.30)" stroke="rgba(255,255,255,0.60)" stroke-width="1.5"/>
  <rect x="20" y="78" width="12" height="8" rx="3" fill="url(#g)"/>
  <rect x="48" y="78" width="12" height="8" rx="3" fill="url(#g)"/>
  <rect x="6" y="24" width="4" height="8" rx="2" fill="rgba(255,255,255,0.35)"/>
  <rect x="6" y="58" width="4" height="8" rx="2" fill="rgba(255,255,255,0.35)"/>
</svg>
